<svg xmlns="http://www.w3.org/2000/svg" viewBox="0 0 512 512">
  <path d="M256 48C141.1 48 48 141.1 48 256s93.1 208 208 208 208-93.1 208-208S370.9 48 256 48zm0 376c-92.8 0-168-75.2-168-168S163.2 88 256 88s168 75.2 168 168-75.2 168-168 168z" fill="black"/>
  <path d="M360 230c-15-20-45-25-60-10-10 10-25 15-40 10-15-5-25-20-25-40 0-30-25-50-50-50-20 0-40 20-40 50 0 45 35 80 80 80 15 0 30-5 40-15 10-10 25-15 40-10 10 3 20 15 20 30 0 20-15 35-35 35-15 0-30-10-35-25-5-10-15-15-25-15-15 0-30 15-30 35 0 25 20 45 45 45 35 0 65-30 65-65 0-25-15-45-35-55z" fill="black"/>
</svg>